<?xml version="1.0" encoding="UTF-8"?>
<svg version="1.1" xmlns="http://www.w3.org/2000/svg" width="1024" height="1024">
<path d="M0 0 C1.53952193 -0.00271958 3.07904256 -0.00628586 4.61856079 -0.01062012 C8.74641989 -0.01962855 12.87417745 -0.01624914 17.002038 -0.00986195 C21.34989223 -0.00474503 25.69773864 -0.00950869 30.04559326 -0.01263428 C37.33802834 -0.01625597 44.63042269 -0.01152069 51.92285156 -0.00195312 C60.32538649 0.00894432 68.72782442 0.00538922 77.13035703 -0.00560594 C84.38177096 -0.01471075 91.63315589 -0.01594901 98.8845737 -0.0107286 C103.19954692 -0.00762851 107.51447468 -0.00714545 111.82944489 -0.01380157 C115.88437269 -0.01962175 119.93917648 -0.01549363 123.99409103 -0.00401306 C125.47261475 -0.00139198 126.95114909 -0.0020873 128.42966843 -0.00653839 C143.48276672 -0.04764367 155.92776424 0.81738675 167.62011719 10.89160156 C168.87011719 12.25878906 168.87011719 12.25878906 168.87011719 14.25878906 C169.76586016 14.6667646 169.76586016 14.6667646 170.67969894 15.08298206 C172.82694325 16.23561348 174.20907505 17.35312039 175.91680908 19.07170105 C176.77858009 19.93151581 176.77858009 19.93151581 177.65776062 20.80870056 C178.27601212 21.43571365 178.89426361 22.06272675 179.53125 22.70874023 C180.19198013 23.37078461 180.85271027 24.03282898 181.53346252 24.7149353 C183.71801925 26.90598525 185.89551364 29.10392292 188.07324219 31.30175781 C189.5948466 32.82963573 191.11696937 34.35699757 192.6395874 35.88386536 C196.65206228 39.9096516 200.65894326 43.94095596 204.66424561 47.97387695 C211.05938811 54.41209135 217.46113091 60.84372395 223.86629486 67.27196693 C226.09536562 69.51119722 228.32095184 71.75384733 230.54620361 73.99687195 C231.92781798 75.38532231 233.30954636 76.77365923 234.69140625 78.16186523 C235.60663811 79.08720314 235.60663811 79.08720314 236.5403595 80.03123474 C240.26162047 83.76212394 244.1101288 87.28828203 248.10484505 90.72512722 C252.43086997 94.48356152 256.43343185 98.59518148 260.49511719 102.63378906 C261.41035156 103.52839844 262.32558594 104.42300781 263.26855469 105.34472656 C274.50029837 116.51154687 280.22605727 125.71765511 280.29891968 141.77124023 C280.29627688 143.30835019 280.29330575 144.84545961 280.29003906 146.38256836 C280.29738676 148.01781288 280.30597502 149.65305222 280.31570435 151.2882843 C280.33786039 155.71420834 280.34085383 160.13994585 280.33895683 164.56591773 C280.33883681 168.27073485 280.34741438 171.97551293 280.35573435 175.68031913 C280.37494885 184.42875182 280.37786008 193.17708911 280.37109375 201.92553711 C280.36446111 210.92445586 280.38729045 219.92296387 280.42440748 228.92179936 C280.45519249 236.66904506 280.4664548 244.41615927 280.46257067 252.16346484 C280.46051147 256.78107096 280.46585261 261.39835766 280.49046326 266.01590538 C280.51287259 270.36392105 280.51073602 274.71127393 280.49053574 279.05929375 C280.48715009 280.6454394 280.49210795 282.2316309 280.50651932 283.81771469 C280.62410502 297.73090705 277.73111918 309.22857628 268.37011719 319.82128906 C256.05133759 331.83209917 237.86809306 334.94100538 221.73339844 339.20800781 C220.00249734 339.66969331 218.27172126 340.13184769 216.5410614 340.59443665 C212.00390511 341.80611106 207.46538889 343.01260305 202.92645264 344.21759033 C194.88132617 346.35418837 186.83851904 348.49950016 178.79589844 350.64550781 C177.48123124 350.99600567 177.48123124 350.99600567 176.14000511 351.35358429 C162.05534285 355.11048375 147.99846914 358.96072586 133.96211243 362.89421082 C124.47228738 365.55194561 114.96178833 368.12079161 105.43261719 370.63378906 C104.57244995 370.86088058 103.71228271 371.08797211 102.8260498 371.32194519 C100.85540496 371.8412594 98.88426469 372.35869262 96.91308594 372.87597656 C87.93549158 375.23608307 78.9665823 377.62838434 69.99829102 380.02355957 C55.70114471 383.84158352 41.40175631 387.65118049 27.10058594 391.45410156 C26.42017305 391.63504742 25.73976017 391.81599327 25.03872871 392.00242233 C17.40790783 394.03157842 9.77648017 396.05841908 2.14379883 398.08056641 C0.11130513 398.61913322 -1.92118061 399.15773001 -3.95365715 399.69636154 C-5.28608137 400.04947031 -6.61851565 400.40254111 -7.95096016 400.75557327 C-15.51221126 402.75945258 -23.0696218 404.77661327 -30.61912537 406.82437134 C-34.21004399 407.79796299 -37.80288299 408.76433233 -41.39602661 409.72967529 C-42.99025624 410.16034615 -44.58345353 410.59485978 -46.17550659 411.0335083 C-48.30757049 411.62084341 -50.44271631 412.19522379 -52.57910156 412.76660156 C-53.73756592 413.08258301 -54.89603027 413.39856445 -56.08959961 413.72412109 C-59.18974112 414.26931582 -61.15476785 414.25128121 -64.12988281 413.25878906 C-65.38801983 410.74251502 -65.2687093 409.00343794 -65.2881012 406.18592834 C-65.29789064 405.10852859 -65.30768009 404.03112883 -65.31776619 402.92108059 C-65.32352102 401.73065183 -65.32927586 400.54022306 -65.33520508 399.3137207 C-65.34509901 398.05984338 -65.35499294 396.80596605 -65.36518669 395.51409245 C-65.39236982 392.04505282 -65.4133291 388.57599949 -65.43318057 385.10691118 C-65.45523176 381.42630167 -65.48277006 377.74573271 -65.50953674 374.06515503 C-65.56608642 366.13322429 -65.61506712 358.20125771 -65.66251373 350.26926804 C-65.69221423 345.31403509 -65.72373528 340.3588147 -65.7555542 335.40359497 C-65.89659428 313.35540767 -66.02159257 291.30716157 -66.12988281 269.25878906 C-66.13553505 268.10986679 -66.14118729 266.96094452 -66.1470108 265.77720642 C-66.25912475 242.59177508 -66.25582701 219.40829843 -66.16434574 196.22282028 C-66.1324595 187.78552463 -66.11398454 179.34822869 -66.09671617 170.91089404 C-66.06373048 154.88900789 -66.01289985 138.86726993 -65.94276619 122.8455019 C-65.9054946 114.25831604 -65.87431328 105.67121041 -65.85943604 97.08395386 C-65.84657518 89.73326555 -65.81965055 82.38278606 -65.77547038 75.03221679 C-65.7529695 71.22011835 -65.73694053 67.40827452 -65.73796463 63.59610367 C-65.73871158 60.04853829 -65.72069963 56.50154684 -65.68870711 52.95413029 C-65.67632354 51.06444117 -65.68323348 49.1746553 -65.69102669 47.28494167 C-65.52251942 33.35655624 -61.33738566 23.86601477 -51.87597656 13.87988281 C-37.56870903 -0.05994286 -18.86205517 -0.05712835 0 0 Z M156.87011719 23.25878906 C156.75386829 32.99512218 156.66522274 42.73128807 156.61105633 52.46817589 C156.58504874 56.99026516 156.54981421 61.5118769 156.49291992 66.03369141 C156.43828212 70.40390285 156.4086303 74.77365726 156.39573097 79.14418411 C156.3865477 80.80506197 156.36861555 82.46591701 156.3414669 84.12659836 C156.19766988 93.29372177 156.1129001 101.56959864 161.87011719 109.25878906 C167.78001248 114.39782845 174.49415409 115.50775108 182.15063477 115.51757812 C182.84094788 115.52108276 183.53126099 115.5245874 184.24249268 115.52819824 C186.49998338 115.53692576 188.75715516 115.53120186 191.01464844 115.52441406 C192.59169067 115.52576253 194.1687325 115.52770458 195.74577332 115.5302124 C199.03815703 115.53315081 202.33043174 115.52890461 205.62280273 115.51953125 C209.84755187 115.50809037 214.07204817 115.51473337 218.29678822 115.52667618 C221.54721497 115.53388956 224.79758134 115.53161009 228.04800987 115.52642059 C229.60657468 115.52508507 231.16514494 115.52672842 232.72370338 115.5313797 C234.89480869 115.53644154 237.06549807 115.52874211 239.23657227 115.51757812 C240.47232498 115.51598694 241.7080777 115.51439575 242.98127747 115.51275635 C245.99794439 115.55927172 245.99794439 115.55927172 247.87011719 113.25878906 C246.96261719 112.53691406 246.05511719 111.81503906 245.12011719 111.07128906 C242.29002713 108.73512982 240.16227269 106.12398344 237.87011719 103.25878906 C237.21011719 103.25878906 236.55011719 103.25878906 235.87011719 103.25878906 C235.64324219 102.70707031 235.41636719 102.15535156 235.18261719 101.58691406 C233.48285792 98.57186489 231.32206903 96.44648537 228.87011719 94.00878906 C227.98324219 93.11675781 227.09636719 92.22472656 226.18261719 91.30566406 C224.13522616 89.03785833 224.13522616 89.03785833 221.87011719 89.25878906 C221.87011719 88.59878906 221.87011719 87.93878906 221.87011719 87.25878906 C221.21011719 87.25878906 220.55011719 87.25878906 219.87011719 87.25878906 C219.54011719 86.26878906 219.21011719 85.27878906 218.87011719 84.25878906 C217.49497177 82.55002446 217.49497177 82.55002446 215.87011719 81.25878906 C215.21011719 81.25878906 214.55011719 81.25878906 213.87011719 81.25878906 C213.87011719 80.59878906 213.87011719 79.93878906 213.87011719 79.25878906 C212.24787179 77.54885473 210.57598294 75.88531222 208.87011719 74.25878906 C208.31324219 73.66066406 207.75636719 73.06253906 207.18261719 72.44628906 C205.91793447 71.03515129 205.91793447 71.03515129 203.87011719 71.25878906 C203.54011719 70.26878906 203.21011719 69.27878906 202.87011719 68.25878906 C201.46188309 67.08526065 200.04940748 65.91631319 198.61230469 64.77832031 C196.65976685 63.07532207 195.04466393 61.23475421 193.37011719 59.25878906 C191.25311342 56.76709436 189.1710691 54.55460198 186.62011719 52.50878906 C184.2129794 50.53931269 182.69613803 48.7239172 180.87011719 46.25878906 C180.21011719 46.25878906 179.55011719 46.25878906 178.87011719 46.25878906 C178.87011719 45.59878906 178.87011719 44.93878906 178.87011719 44.25878906 C178.21011719 44.25878906 177.55011719 44.25878906 176.87011719 44.25878906 C176.87011719 43.59878906 176.87011719 42.93878906 176.87011719 42.25878906 C174.60854226 39.74592803 172.66236964 37.65491529 169.62011719 36.13378906 C167.87011719 35.25878906 167.87011719 35.25878906 166.87011719 32.25878906 C166.21011719 32.25878906 165.55011719 32.25878906 164.87011719 32.25878906 C164.87011719 31.59878906 164.87011719 30.93878906 164.87011719 30.25878906 C164.21011719 30.25878906 163.55011719 30.25878906 162.87011719 30.25878906 C162.60199219 29.61941406 162.33386719 28.98003906 162.05761719 28.32128906 C160.98343967 25.9274722 160.98343967 25.9274722 157.87011719 25.25878906 C157.54011719 24.59878906 157.21011719 23.93878906 156.87011719 23.25878906 Z M36.93261719 151.19628906 C36.38049561 151.6679248 35.82837402 152.13956055 35.25952148 152.62548828 C33.45954409 154.16588496 31.66442431 155.71179252 29.87011719 157.25878906 C28.92942383 158.06775635 28.92942383 158.06775635 27.96972656 158.89306641 C21.79732119 164.20402412 15.64391145 169.52914103 9.62011719 175.00878906 C6.28423037 178.03538836 2.87015049 180.92356656 -0.62988281 183.75878906 C-5.96669977 188.08266909 -11.07384862 192.61196627 -16.12988281 197.25878906 C-16.98839844 197.98388672 -16.98839844 197.98388672 -17.86425781 198.72363281 C-20.18714887 200.76594995 -21.09151799 202.09835435 -21.81738281 205.13378906 C-20.34934145 211.80670436 -14.46878974 215.98607438 -9.45800781 220.25097656 C-6.67048051 222.65498501 -3.96115224 225.13938922 -1.25488281 227.63378906 C5.34715022 233.70624725 11.97165403 239.7523046 18.74511719 245.63378906 C21.59350997 248.10965563 24.37880165 250.64519644 27.14648438 253.2109375 C37.63478124 264.12704266 37.63478124 264.12704266 50.43261719 270.75878906 C56.31797204 269.90273745 60.84517095 265.71665484 64.56933594 261.19628906 C66.50017988 258.3203173 67.0048797 256.76261441 66.87011719 253.25878906 C63.52131471 248.10912 58.76998228 243.90520029 53.87011719 240.25878906 C53.21011719 240.25878906 52.55011719 240.25878906 51.87011719 240.25878906 C51.87011719 239.59878906 51.87011719 238.93878906 51.87011719 238.25878906 C50.09825277 236.62530036 50.09825277 236.62530036 47.74511719 234.88378906 C42.74534042 230.98721622 37.93216226 226.92157728 33.14428711 222.77099609 C30.32504408 220.33529989 27.49321398 217.93456551 24.56542969 215.62988281 C23.57285156 214.84742188 22.58027344 214.06496094 21.55761719 213.25878906 C20.67460937 212.57816406 19.79160156 211.89753906 18.88183594 211.19628906 C16.87011719 209.25878906 16.87011719 209.25878906 15.76464844 207.32128906 C15.87011719 205.25878906 15.87011719 205.25878906 17.95605469 202.83691406 C18.91769531 201.98613281 19.87933594 201.13535156 20.87011719 200.25878906 C21.76988281 199.40800781 22.66964844 198.55722656 23.59667969 197.68066406 C29.28036838 192.44125292 35.05343457 187.42936468 41.07714844 182.57910156 C45.20774803 179.14752652 49.12515256 175.49920528 53.06152344 171.84863281 C56.10783515 169.03958599 59.20966552 166.30546571 62.34667969 163.59863281 C65.41237151 160.9716557 65.41237151 160.9716557 66.30761719 157.00878906 C65.77661991 152.45738383 64.22316919 150.18567379 60.87011719 147.25878906 C50.79332269 139.67625063 45.94367753 143.4841203 36.93261719 151.19628906 Z M93.58496094 152.21972656 C92.40180793 155.59462204 92.93276423 157.83891537 93.87011719 161.25878906 C95.61869791 163.59384802 97.703073 165.39078422 99.93261719 167.25878906 C100.52824463 167.78150391 101.12387207 168.30421875 101.73754883 168.84277344 C103.43637098 170.32944482 105.15179802 171.79475985 106.87011719 173.25878906 C108.18367079 174.42426935 109.49638161 175.59070147 110.80761719 176.75878906 C113.23373434 178.86176587 115.67494803 180.94687959 118.11621094 183.03222656 C132.23828291 195.09888307 132.23828291 195.09888307 138.87011719 201.25878906 C139.62035156 201.94714844 140.37058594 202.63550781 141.14355469 203.34472656 C142.87011719 205.25878906 142.87011719 205.25878906 142.87011719 207.88378906 C141.62354668 210.84439402 140.68984488 210.91567953 137.87011719 212.25878906 C136.73274106 213.12767801 135.62595257 214.03778319 134.54980469 214.98144531 C133.63086426 215.78243652 133.63086426 215.78243652 132.69335938 216.59960938 C132.05043945 217.16776367 131.40751953 217.73591797 130.74511719 218.32128906 C129.74206543 219.19865723 129.74206543 219.19865723 128.71875 220.09375 C124.98792404 223.36473415 121.29284466 226.67262986 117.62011719 230.00878906 C114.24115452 233.07342962 110.78353454 236.00458371 107.24511719 238.88378906 C106.33632813 239.625 105.42753906 240.36621094 104.49121094 241.12988281 C102.82341204 242.48450338 101.14955493 243.83172393 99.46777344 245.16894531 C95.47495486 248.45417579 92.57392904 250.86289819 91.87011719 256.25878906 C92.71448629 261.74718826 97.64884765 265.09681924 101.87011719 268.25878906 C104.47492593 270.0151435 105.62437318 270.27053778 108.81152344 270.11816406 C112.30552487 269.13645229 114.07207632 267.87699822 116.80761719 265.50878906 C118.22880859 264.29255859 118.22880859 264.29255859 119.67871094 263.05175781 C120.44417236 262.38152588 120.44417236 262.38152588 121.22509766 261.69775391 C122.98302351 260.16002536 124.7554405 258.64024508 126.53027344 257.12207031 C133.27179779 251.33795282 139.90996123 245.45424857 146.45996094 239.45410156 C149.20017047 236.95815706 151.98857672 234.52362865 154.78808594 232.09472656 C157.28555075 229.89245928 159.73139419 227.63738871 162.18261719 225.38378906 C166.85552117 221.10899562 171.68773701 217.09593609 176.65527344 213.16894531 C179.05478751 211.27191737 179.05478751 211.27191737 180.87011719 208.25878906 C180.81942569 203.90945838 180.35989923 201.84030286 177.53417969 198.48535156 C176.53685513 197.60015718 175.52277506 196.73358002 174.49511719 195.88378906 C173.95636963 195.41465088 173.41762207 194.9455127 172.86254883 194.4621582 C168.52590945 190.71448434 164.06446672 187.11089518 159.60058594 183.51660156 C155.74460882 180.32811119 152.07656187 176.9483721 148.38964844 173.56738281 C143.22964144 168.02167401 143.22964144 168.02167401 136.87011719 165.25878906 C136.87011719 164.59878906 136.87011719 163.93878906 136.87011719 163.25878906 C135.46333695 162.01064575 133.99132015 160.83570517 132.49511719 159.69628906 C128.72628746 156.76557019 125.13462656 153.74021485 121.62011719 150.50878906 C115.75841282 144.92249404 115.75841282 144.92249404 108.49511719 141.69628906 C102.08942004 143.06893845 97.49535477 147.14745853 93.58496094 152.21972656 Z " fill="#0039D1" transform="translate(404.1298828125,291.7412109375)"/>
<path d="M0 0 C1.53952193 -0.00271958 3.07904256 -0.00628586 4.61856079 -0.01062012 C8.74641989 -0.01962855 12.87417745 -0.01624914 17.002038 -0.00986195 C21.34989223 -0.00474503 25.69773864 -0.00950869 30.04559326 -0.01263428 C37.33802834 -0.01625597 44.63042269 -0.01152069 51.92285156 -0.00195312 C60.32538649 0.00894432 68.72782442 0.00538922 77.13035703 -0.00560594 C84.38177096 -0.01471075 91.63315589 -0.01594901 98.8845737 -0.0107286 C103.19954692 -0.00762851 107.51447468 -0.00714545 111.82944489 -0.01380157 C115.88437269 -0.01962175 119.93917648 -0.01549363 123.99409103 -0.00401306 C125.47261475 -0.00139198 126.95114909 -0.0020873 128.42966843 -0.00653839 C143.48276672 -0.04764367 155.92776424 0.81738675 167.62011719 10.89160156 C168.87011719 12.25878906 168.87011719 12.25878906 168.87011719 14.25878906 C169.76586016 14.6667646 169.76586016 14.6667646 170.67969894 15.08298206 C172.82694325 16.23561348 174.20907505 17.35312039 175.91680908 19.07170105 C176.77858009 19.93151581 176.77858009 19.93151581 177.65776062 20.80870056 C178.27601212 21.43571365 178.89426361 22.06272675 179.53125 22.70874023 C180.19198013 23.37078461 180.85271027 24.03282898 181.53346252 24.7149353 C183.71801925 26.90598525 185.89551364 29.10392292 188.07324219 31.30175781 C189.5948466 32.82963573 191.11696937 34.35699757 192.6395874 35.88386536 C196.65206228 39.9096516 200.65894326 43.94095596 204.66424561 47.97387695 C211.05938811 54.41209135 217.46113091 60.84372395 223.86629486 67.27196693 C226.09536562 69.51119722 228.32095184 71.75384733 230.54620361 73.99687195 C231.92781798 75.38532231 233.30954636 76.77365923 234.69140625 78.16186523 C235.60663811 79.08720314 235.60663811 79.08720314 236.5403595 80.03123474 C240.26162047 83.76212394 244.1101288 87.28828203 248.10484505 90.72512722 C252.43086997 94.48356152 256.43343185 98.59518148 260.49511719 102.63378906 C261.41035156 103.52839844 262.32558594 104.42300781 263.26855469 105.34472656 C280.61379754 122.5897079 280.86810658 138.55311961 281.30493164 161.70947266 C281.37621014 165.15327248 281.50827194 168.58641963 281.69458008 172.02587891 C283.15387366 199.63277882 283.15387366 199.63277882 277.85968018 207.09100342 C272.78454124 211.75426572 266.96456087 214.50121056 260.62741089 217.07647705 C256.7814876 218.7255873 253.50800568 220.93832637 250.10449219 223.34472656 C249.01136719 224.06660156 247.91824219 224.78847656 246.79199219 225.53222656 C245.16752304 226.6085374 243.54315645 227.68500776 241.92089844 228.76464844 C240.27641212 229.85783671 238.62802525 230.94515041 236.97949219 232.03222656 C236.04073242 232.65532715 235.10197266 233.27842773 234.13476562 233.92041016 C231.87011719 235.25878906 231.87011719 235.25878906 229.87011719 235.25878906 C231.16964604 227.71435315 232.73403005 220.27034842 234.49511719 212.82128906 C237.38378223 200.45871249 240.15142375 188.07154202 242.89013672 175.67504883 C245.5027415 163.85879008 248.17824699 152.05722972 250.87011719 140.25878906 C249.30942757 140.27211273 249.30942757 140.27211273 247.71720886 140.28570557 C237.87559647 140.36705878 228.03405298 140.42688225 218.19217968 140.46603775 C213.13326609 140.48684528 208.0746256 140.51503713 203.01586914 140.56054688 C198.12696489 140.60424956 193.23832208 140.62797747 188.34923744 140.63829803 C186.49105023 140.64564579 184.6328761 140.65999349 182.77480125 140.68170929 C166.86486991 140.86013006 154.05694288 138.50381389 141.79980469 127.37988281 C130.34287313 115.104599 128.40187052 100.20226872 128.57714844 84.09082031 C128.58275692 82.55954915 128.58702108 81.02827253 128.5900116 79.49699402 C128.60136204 75.50373981 128.63074226 71.51082288 128.66412354 67.5177002 C128.69503822 63.42818766 128.70856224 59.33861962 128.72363281 55.24902344 C128.75562349 47.25212538 128.80669803 39.2554994 128.87011719 31.25878906 C128.04587753 31.80896194 127.22163788 32.35913483 126.37242126 32.92597961 C124.75080833 34.00784798 124.75080833 34.00784798 123.09643555 35.11157227 C122.02469589 35.82674515 120.95295624 36.54191803 119.84873962 37.27876282 C117.65617578 38.73626005 115.45972788 40.18462431 113.24902344 41.61425781 C112.31960938 42.21882813 111.39019531 42.82339844 110.43261719 43.44628906 C109.48515625 44.05859375 108.53769531 44.67089844 107.56152344 45.30175781 C104.68893914 47.39053101 102.36463781 49.73659547 99.87011719 52.25878906 C98.23695997 53.53214133 96.5704008 54.76406061 94.87011719 55.94628906 C94.04511719 56.52765625 93.22011719 57.10902344 92.37011719 57.70800781 C89.87011719 59.25878906 89.87011719 59.25878906 87.22558594 60.30175781 C84.03940091 61.5963106 82.24518435 63.81953089 79.87011719 66.25878906 C79.21011719 66.25878906 78.55011719 66.25878906 77.87011719 66.25878906 C77.10699219 67.06316406 76.34386719 67.86753906 75.55761719 68.69628906 C72.79357156 71.33177443 71.58174271 71.94064973 67.87011719 72.25878906 C67.87011719 72.91878906 67.87011719 73.57878906 67.87011719 74.25878906 C66.73316406 74.78859375 65.59621094 75.31839844 64.42480469 75.86425781 C59.57695667 78.29031462 55.33647926 81.34480216 50.99511719 84.57128906 C49.40697392 85.73589504 47.81843538 86.8999622 46.22949219 88.06347656 C45.47603516 88.61745117 44.72257812 89.17142578 43.94628906 89.7421875 C41.40522782 91.59838134 38.83206056 93.40471027 36.24511719 95.19628906 C30.8867512 98.9250489 25.60988575 102.72093703 20.68261719 107.00878906 C18.03137104 109.12978598 16.02201233 110.12733952 12.87011719 111.25878906 C11.98324219 111.79503906 11.09636719 112.33128906 10.18261719 112.88378906 C7.87011719 114.25878906 7.87011719 114.25878906 5.87011719 114.25878906 C5.37511719 115.74378906 5.37511719 115.74378906 4.87011719 117.25878906 C2.94433594 118.82910156 2.94433594 118.82910156 0.55761719 120.38378906 C-0.22226562 120.90199219 -1.00214844 121.42019531 -1.80566406 121.95410156 C-4.12988281 123.25878906 -4.12988281 123.25878906 -6.29785156 123.68847656 C-6.90242188 123.87667969 -7.50699219 124.06488281 -8.12988281 124.25878906 C-8.42386963 124.88172852 -8.71785645 125.50466797 -9.02075195 126.14648438 C-10.30897492 128.59986432 -11.32319223 129.27634137 -13.70800781 130.62597656 C-18.27179921 133.32013888 -22.56495169 136.31045446 -26.87988281 139.38378906 C-27.62109375 139.9084375 -28.36230469 140.43308594 -29.12597656 140.97363281 C-33.22107096 143.86268783 -33.22107096 143.86268783 -37.18164062 146.93017578 C-39.12988281 148.25878906 -39.12988281 148.25878906 -42.12988281 148.25878906 C-42.45988281 149.24878906 -42.78988281 150.23878906 -43.12988281 151.25878906 C-45.64160156 153.12597656 -45.64160156 153.12597656 -48.81738281 155.13378906 C-52.28526382 157.36873735 -55.64466331 159.54413363 -58.75488281 162.25878906 C-61.12988281 164.25878906 -61.12988281 164.25878906 -63.12988281 164.25878906 C-63.62488281 165.24878906 -63.62488281 165.24878906 -64.12988281 166.25878906 C-64.35452658 149.64676141 -64.55534983 133.03463965 -64.72828293 116.42200089 C-64.80913723 108.70742236 -64.89760884 100.99307536 -65.00439453 93.27880859 C-65.09751418 86.55035883 -65.17595296 79.82192025 -65.23720384 73.09310222 C-65.27009864 69.53443658 -65.31004344 65.97618297 -65.36760712 62.41782379 C-65.43179555 58.43286459 -65.4631837 54.44826145 -65.4921875 50.46289062 C-65.51591934 49.29978867 -65.53965118 48.13668671 -65.56410217 46.93833923 C-65.60056057 33.15876544 -61.20487584 23.72615606 -51.87597656 13.87988281 C-37.56870903 -0.05994286 -18.86205517 -0.05712835 0 0 Z M156.87011719 23.25878906 C156.75386829 32.99512218 156.66522274 42.73128807 156.61105633 52.46817589 C156.58504874 56.99026516 156.54981421 61.5118769 156.49291992 66.03369141 C156.43828212 70.40390285 156.4086303 74.77365726 156.39573097 79.14418411 C156.3865477 80.80506197 156.36861555 82.46591701 156.3414669 84.12659836 C156.19766988 93.29372177 156.1129001 101.56959864 161.87011719 109.25878906 C167.78001248 114.39782845 174.49415409 115.50775108 182.15063477 115.51757812 C182.84094788 115.52108276 183.53126099 115.5245874 184.24249268 115.52819824 C186.49998338 115.53692576 188.75715516 115.53120186 191.01464844 115.52441406 C192.59169067 115.52576253 194.1687325 115.52770458 195.74577332 115.5302124 C199.03815703 115.53315081 202.33043174 115.52890461 205.62280273 115.51953125 C209.84755187 115.50809037 214.07204817 115.51473337 218.29678822 115.52667618 C221.54721497 115.53388956 224.79758134 115.53161009 228.04800987 115.52642059 C229.60657468 115.52508507 231.16514494 115.52672842 232.72370338 115.5313797 C234.89480869 115.53644154 237.06549807 115.52874211 239.23657227 115.51757812 C240.47232498 115.51598694 241.7080777 115.51439575 242.98127747 115.51275635 C245.99794439 115.55927172 245.99794439 115.55927172 247.87011719 113.25878906 C246.96261719 112.53691406 246.05511719 111.81503906 245.12011719 111.07128906 C242.29002713 108.73512982 240.16227269 106.12398344 237.87011719 103.25878906 C237.21011719 103.25878906 236.55011719 103.25878906 235.87011719 103.25878906 C235.64324219 102.70707031 235.41636719 102.15535156 235.18261719 101.58691406 C233.48285792 98.57186489 231.32206903 96.44648537 228.87011719 94.00878906 C227.98324219 93.11675781 227.09636719 92.22472656 226.18261719 91.30566406 C224.13522616 89.03785833 224.13522616 89.03785833 221.87011719 89.25878906 C221.87011719 88.59878906 221.87011719 87.93878906 221.87011719 87.25878906 C221.21011719 87.25878906 220.55011719 87.25878906 219.87011719 87.25878906 C219.54011719 86.26878906 219.21011719 85.27878906 218.87011719 84.25878906 C217.49497177 82.55002446 217.49497177 82.55002446 215.87011719 81.25878906 C215.21011719 81.25878906 214.55011719 81.25878906 213.87011719 81.25878906 C213.87011719 80.59878906 213.87011719 79.93878906 213.87011719 79.25878906 C212.24787179 77.54885473 210.57598294 75.88531222 208.87011719 74.25878906 C208.31324219 73.66066406 207.75636719 73.06253906 207.18261719 72.44628906 C205.91793447 71.03515129 205.91793447 71.03515129 203.87011719 71.25878906 C203.54011719 70.26878906 203.21011719 69.27878906 202.87011719 68.25878906 C201.46188309 67.08526065 200.04940748 65.91631319 198.61230469 64.77832031 C196.65976685 63.07532207 195.04466393 61.23475421 193.37011719 59.25878906 C191.25311342 56.76709436 189.1710691 54.55460198 186.62011719 52.50878906 C184.2129794 50.53931269 182.69613803 48.7239172 180.87011719 46.25878906 C180.21011719 46.25878906 179.55011719 46.25878906 178.87011719 46.25878906 C178.87011719 45.59878906 178.87011719 44.93878906 178.87011719 44.25878906 C178.21011719 44.25878906 177.55011719 44.25878906 176.87011719 44.25878906 C176.87011719 43.59878906 176.87011719 42.93878906 176.87011719 42.25878906 C174.60854226 39.74592803 172.66236964 37.65491529 169.62011719 36.13378906 C167.87011719 35.25878906 167.87011719 35.25878906 166.87011719 32.25878906 C166.21011719 32.25878906 165.55011719 32.25878906 164.87011719 32.25878906 C164.87011719 31.59878906 164.87011719 30.93878906 164.87011719 30.25878906 C164.21011719 30.25878906 163.55011719 30.25878906 162.87011719 30.25878906 C162.60199219 29.61941406 162.33386719 28.98003906 162.05761719 28.32128906 C160.98343967 25.9274722 160.98343967 25.9274722 157.87011719 25.25878906 C157.54011719 24.59878906 157.21011719 23.93878906 156.87011719 23.25878906 Z " fill="#0085FC" transform="translate(404.1298828125,291.7412109375)"/>
<path d="M0 0 C0.33 0 0.66 0 1 0 C1.33 78.54 1.66 157.08 2 238 C6.71413584 239.48152544 6.71413584 239.48152544 9.5625 237.6875 C12.89700665 236.05056037 15.2428206 235.53454716 18.875 235 C24.0005889 234.23971487 28.2123011 232.94753854 33 231 C34.05832031 230.74476563 35.11664063 230.48953125 36.20703125 230.2265625 C40.80864716 228.73850133 44.35630815 226.51760479 48.375 223.875 C49.18227539 223.35437988 49.98955078 222.83375977 50.82128906 222.29736328 C52.59293312 221.15463618 54.36236955 220.00848107 56.12988281 218.859375 C59.16821964 216.89102069 62.21909492 214.94341773 65.2734375 213 C74.8275741 206.91832179 84.36312866 200.81677347 93.76513672 194.50195312 C103.11862627 188.2226141 112.6139073 182.1593115 122.109375 176.09765625 C136.18741948 167.12492135 136.18741948 167.12492135 150.12084961 157.93066406 C156.275566 153.79752027 162.48099404 149.7423063 168.6875 145.6875 C169.24983337 145.32010712 169.81216675 144.95271423 170.39154053 144.57418823 C182.14868566 136.89457672 193.90945624 129.2199686 205.70922852 121.60595703 C215.63457958 115.19849295 225.51829668 108.73014685 235.38156128 102.22756958 C259.05510933 86.62104374 259.05510933 86.62104374 270.72753906 79.08374023 C274.31644067 76.76257816 277.88116835 74.41355262 281.4140625 72.0078125 C282.1160376 71.53142334 282.8180127 71.05503418 283.54125977 70.56420898 C284.84032665 69.67938737 286.13545334 68.78873769 287.42553711 67.89086914 C291.66908729 65 291.66908729 65 295 65 C294.8548999 65.56468994 294.7097998 66.12937988 294.56030273 66.71118164 C290.5698466 82.30458464 286.92933214 97.96232212 283.4203186 113.67021179 C281.37072193 122.83300656 279.26680188 131.98344166 277.16949463 141.13540649 C277.00286316 141.86262909 276.83623169 142.58985168 276.66455078 143.33911133 C276.50267273 144.0455629 276.34079468 144.75201447 276.17401123 145.47987366 C275.71553723 147.48337677 275.25873316 149.48725432 274.80224609 151.49121094 C274.31651225 153.61566825 273.82602275 155.73905638 273.32666016 157.86035156 C272.51195134 161.36624137 272 164.3780841 272 168 C277.642837 166.53211226 283.28494238 165.06148679 288.92578125 163.5859375 C292.44195657 162.66621357 295.9593453 161.75214334 299.48046875 160.8515625 C306.82952222 158.94766264 313.91227742 156.71526063 321 154 C321.99 153.67 322.98 153.34 324 153 C324 152.34 324 151.68 324 151 C325.03125 150.505 326.0625 150.01 327.125 149.5 C335.08126338 144.93519434 339.76501266 135.5766577 342.25 127 C342.4975 126.01 342.745 125.02 343 124 C343.33 124 343.66 124 344 124 C343.38828754 135.01082433 338.05743303 143.640789 330 151 C322.3190681 156.32885416 314.55104262 159.47224652 305.55859375 161.8125 C304.36592392 162.13814941 303.17325409 162.46379883 301.94444275 162.79931641 C299.34513331 163.50663012 296.74503368 164.20746442 294.14129639 164.89794922 C289.84406574 166.03827065 285.55487665 167.20720598 281.26611328 168.37890625 C272.67066009 170.72340134 264.06815962 173.04129884 255.46417236 175.35424805 C249.1023443 177.06479065 242.74135556 178.77845277 236.38056564 180.49285126 C234.82120691 180.91313893 233.26182238 181.33333091 231.70241165 181.7534256 C219.9807183 184.91195197 208.27357624 188.12006648 196.57374573 191.35858154 C188.0633807 193.71257598 179.54123008 196.01064933 171 198.25 C168.09611261 199.01470952 165.19259147 199.78080588 162.2890625 200.546875 C161.54008698 200.74434326 160.79111145 200.94181152 160.0194397 201.14526367 C151.71559276 203.33590923 143.41837242 205.55130232 135.12112427 207.76678467 C120.82616764 211.58353888 106.52927825 215.39301922 92.23046875 219.1953125 C91.55005587 219.37625835 90.86964298 219.55720421 90.16861153 219.74363327 C82.53779065 221.77278936 74.90636299 223.79963001 67.27368164 225.82177734 C65.24118795 226.36034415 63.20870221 226.89894095 61.17622566 227.43757248 C59.84380145 227.79068125 58.51136717 228.14375204 57.17892265 228.49678421 C49.61767155 230.50066352 42.06026101 232.51782421 34.51075745 234.56558228 C30.91983882 235.53917392 27.32699982 236.50554326 23.7338562 237.47088623 C22.13962657 237.90155709 20.54642929 238.33607072 18.95437622 238.77471924 C16.82231233 239.36205435 14.6871665 239.93643473 12.55078125 240.5078125 C11.39231689 240.82379395 10.23385254 241.13977539 9.0402832 241.46533203 C5.94014169 242.01052676 3.97511496 241.99249214 1 241 C-0.25813702 238.48372596 -0.13882649 236.74464888 -0.15821838 233.92713928 C-0.17290256 232.31097591 -0.17290256 232.31097591 -0.18788338 230.66216278 C-0.19363821 229.4717765 -0.19939304 228.28139023 -0.20532227 227.05493164 C-0.2152162 225.80143669 -0.22511013 224.54794174 -0.23530388 223.2564621 C-0.26249254 219.78760489 -0.28345293 216.31873399 -0.30329776 212.849828 C-0.32537216 209.16247028 -0.3528977 205.47515271 -0.37965393 201.78782654 C-0.43029306 194.67153855 -0.47526042 187.55522563 -0.51790267 180.43888563 C-0.55220511 174.71949986 -0.58835768 169.0001286 -0.62567139 163.28076172 C-0.87104401 125.54125925 -1.09926302 87.80128705 -1.12293625 50.06089401 C-1.12498676 47.516433 -1.12873185 44.97197919 -1.13284302 42.42752075 C-1.13864125 38.50623889 -1.13890396 34.58499672 -1.13438225 30.66371346 C-1.13289796 28.64734523 -1.13572198 26.63097517 -1.1388092 24.61460876 C-1.11758028 16.36281777 -0.68984184 8.22224598 0 0 Z " fill="#00127D" transform="translate(339,464)"/>
<path d="M0 0 C0.33 0 0.66 0 1 0 C1.33 78.54 1.66 157.08 2 238 C6.71413584 239.48152544 6.71413584 239.48152544 9.5625 237.6875 C12.89700665 236.05056037 15.2428206 235.53454716 18.875 235 C24.0005889 234.23971487 28.2123011 232.94753854 33 231 C34.08796875 230.72414063 35.1759375 230.44828125 36.296875 230.1640625 C40.33583234 228.89443245 43.41698363 227.16272935 46.9375 224.875 C47.52595703 224.50246094 48.11441406 224.12992188 48.72070312 223.74609375 C50.15203964 222.83841694 51.57674646 221.92029928 53 221 C53.33 221.66 53.66 222.32 54 223 C51.525 224.98 51.525 224.98 49 227 C50.81332154 226.69230293 52.62564345 226.37870936 54.4375 226.0625 C55.44683594 225.88847656 56.45617187 225.71445312 57.49609375 225.53515625 C59.9287438 225.25248903 59.9287438 225.25248903 61 224 C62.8327875 223.807075 64.66635605 223.6170593 66.50390625 223.4765625 C69.3369314 222.93567194 71.86311883 221.90573874 74.54418945 220.86474609 C79.6924714 219.0519203 85.02409625 217.83301536 90.3125 216.5 C92.64209711 215.90691747 94.97152628 215.31317482 97.30078125 214.71875 C98.42307129 214.43386719 99.54536133 214.14898438 100.70166016 213.85546875 C104.74539678 212.80667133 108.76575949 211.68251732 112.78198242 210.53320312 C115 210 115 210 118 210 C118 209.34 118 208.68 118 208 C119.93746094 207.83177734 119.93746094 207.83177734 121.9140625 207.66015625 C126.9164835 207.10465827 131.56341558 205.87613956 136.375 204.4375 C137.94428525 203.97436948 139.51456289 203.51458486 141.0859375 203.05859375 C141.7670459 202.85548584 142.4481543 202.65237793 143.14990234 202.44311523 C145 202 145 202 148 202 C148.33 201.34 148.66 200.68 149 200 C150.86921821 199.75674558 152.73997648 199.52225418 154.61523438 199.33105469 C158.94454578 198.73005691 163.07162885 197.37733562 167.25 196.125 C169.12065581 195.57662885 170.99174743 195.02974208 172.86328125 194.484375 C173.75354004 194.22462891 174.64379883 193.96488281 175.56103516 193.69726562 C178.50454081 192.8557589 181.46269852 192.09762384 184.4375 191.375 C188.8717708 190.29206392 193.28668647 189.14910054 197.6875 187.9375 C199.45673828 187.45603516 199.45673828 187.45603516 201.26171875 186.96484375 C204.13509785 186.30894618 204.13509785 186.30894618 205 184 C206.8359375 183.76171875 206.8359375 183.76171875 209.375 183.6875 C220.39012226 182.85430486 231.0373024 179.13452704 241.609375 176.11328125 C242.73134277 175.79439941 243.85331055 175.47551758 245.00927734 175.14697266 C247.21990254 174.51678573 249.42864357 173.87994401 251.63525391 173.23583984 C253.15771729 172.80005615 253.15771729 172.80005615 254.7109375 172.35546875 C255.61118652 172.09403076 256.51143555 171.83259277 257.43896484 171.56323242 C260.04174877 170.99081845 262.34417109 170.89628937 265 171 C265 170.34 265 169.68 265 169 C266.65 168.67 268.3 168.34 270 168 C270 168.99 270 169.98 270 171 C252.44095804 176.20871873 234.80751075 181.10412012 217.125 185.875 C215.15298097 186.40818119 213.18105028 186.94168829 211.2091198 187.47519684 C193.90509021 192.15618073 176.58846465 196.78706481 159.25286865 201.34963989 C151.21405081 203.46731449 143.18302111 205.61419129 135.15133667 207.75872803 C120.84629711 211.57812249 106.53935098 215.39034071 92.23046875 219.1953125 C91.55005587 219.37625835 90.86964298 219.55720421 90.16861153 219.74363327 C82.53779065 221.77278936 74.90636299 223.79963001 67.27368164 225.82177734 C65.24118795 226.36034415 63.20870221 226.89894095 61.17622566 227.43757248 C59.84380145 227.79068125 58.51136717 228.14375204 57.17892265 228.49678421 C49.61767155 230.50066352 42.06026101 232.51782421 34.51075745 234.56558228 C30.91983882 235.53917392 27.32699982 236.50554326 23.7338562 237.47088623 C22.13962657 237.90155709 20.54642929 238.33607072 18.95437622 238.77471924 C16.82231233 239.36205435 14.6871665 239.93643473 12.55078125 240.5078125 C11.39231689 240.82379395 10.23385254 241.13977539 9.0402832 241.46533203 C5.94014169 242.01052676 3.97511496 241.99249214 1 241 C-0.25813702 238.48372596 -0.13882649 236.74464888 -0.15821838 233.92713928 C-0.17290256 232.31097591 -0.17290256 232.31097591 -0.18788338 230.66216278 C-0.19363821 229.4717765 -0.19939304 228.28139023 -0.20532227 227.05493164 C-0.2152162 225.80143669 -0.22511013 224.54794174 -0.23530388 223.2564621 C-0.26249254 219.78760489 -0.28345293 216.31873399 -0.30329776 212.849828 C-0.32537216 209.16247028 -0.3528977 205.47515271 -0.37965393 201.78782654 C-0.43029306 194.67153855 -0.47526042 187.55522563 -0.51790267 180.43888563 C-0.55220511 174.71949986 -0.58835768 169.0001286 -0.62567139 163.28076172 C-0.87104401 125.54125925 -1.09926302 87.80128705 -1.12293625 50.06089401 C-1.12498676 47.516433 -1.12873185 44.97197919 -1.13284302 42.42752075 C-1.13864125 38.50623889 -1.13890396 34.58499672 -1.13438225 30.66371346 C-1.13289796 28.64734523 -1.13572198 26.63097517 -1.1388092 24.61460876 C-1.11758028 16.36281777 -0.68984184 8.22224598 0 0 Z " fill="#030B71" transform="translate(339,464)"/>
<path d="M0 0 C0.33 0.99 0.66 1.98 1 3 C-16.55904196 8.20871873 -34.19248925 13.10412012 -51.875 17.875 C-53.84701903 18.40818119 -55.81894972 18.94168829 -57.7908802 19.47519684 C-75.04963278 24.14393266 -92.32079674 28.76328533 -109.61117554 33.31338501 C-118.27012703 35.59447922 -126.92029195 37.90861085 -135.57159424 40.21850586 C-138.46596211 40.99091642 -141.36061364 41.76225399 -144.25537109 42.53320312 C-152.43112994 44.71100127 -160.60631282 46.8904613 -168.77429199 49.09729004 C-171.94328474 49.95278214 -175.11349706 50.80369209 -178.28393555 51.65380859 C-179.74564609 52.04705495 -181.20676318 52.44251474 -182.66723633 52.84033203 C-184.6621072 53.38356253 -186.65887445 53.91919034 -188.65625 54.453125 C-190.32397461 54.90413574 -190.32397461 54.90413574 -192.02539062 55.36425781 C-194.79387956 55.95594734 -197.18181791 56.12952647 -200 56 C-199 54 -199 54 -196.40234375 53.0703125 C-195.25894531 52.75835938 -194.11554688 52.44640625 -192.9375 52.125 C-191.66648437 51.77695312 -190.39546875 51.42890625 -189.0859375 51.0703125 C-184.42312412 49.83807741 -179.74726283 48.65905878 -175.06347656 47.50927734 C-169.01648575 46.02325213 -163.01352921 44.39268607 -157.01171875 42.734375 C-154 42 -154 42 -151 42 C-151 41.34 -151 40.68 -151 40 C-149.70835937 39.88785156 -148.41671875 39.77570312 -147.0859375 39.66015625 C-142.0835165 39.10465827 -137.43658442 37.87613956 -132.625 36.4375 C-131.05571475 35.97436948 -129.48543711 35.51458486 -127.9140625 35.05859375 C-126.8923999 34.75393188 -126.8923999 34.75393188 -125.85009766 34.44311523 C-124 34 -124 34 -121 34 C-120.505 33.01 -120.505 33.01 -120 32 C-118.13078179 31.75674558 -116.26002352 31.52225418 -114.38476562 31.33105469 C-110.05545422 30.73005691 -105.92837115 29.37733562 -101.75 28.125 C-99.87934419 27.57662885 -98.00825257 27.02974208 -96.13671875 26.484375 C-94.80133057 26.09475586 -94.80133057 26.09475586 -93.43896484 25.69726562 C-90.49545919 24.8557589 -87.53730148 24.09762384 -84.5625 23.375 C-80.1282292 22.29206392 -75.71331353 21.14910054 -71.3125 19.9375 C-70.13300781 19.61652344 -68.95351563 19.29554688 -67.73828125 18.96484375 C-64.86490215 18.30894618 -64.86490215 18.30894618 -64 16 C-62.1640625 15.76171875 -62.1640625 15.76171875 -59.625 15.6875 C-48.60987774 14.85430486 -37.9626976 11.13452704 -27.390625 8.11328125 C-26.26865723 7.79439941 -25.14668945 7.47551758 -23.99072266 7.14697266 C-21.78009746 6.51678573 -19.57135643 5.87994401 -17.36474609 5.23583984 C-16.34977051 4.94531738 -15.33479492 4.65479492 -14.2890625 4.35546875 C-13.38881348 4.09403076 -12.48856445 3.83259277 -11.56103516 3.56323242 C-8.95825123 2.99081845 -6.65582891 2.89628937 -4 3 C-4 2.34 -4 1.68 -4 1 C-2.68 0.67 -1.36 0.34 0 0 Z " fill="#050D56" transform="translate(608,632)"/>
<path d="M0 0 C0.66 0.33 1.32 0.66 2 1 C-2.71537437 6.00505608 -7.7987373 10.35223359 -13.15234375 14.66015625 C-16.78212403 17.64265061 -20.2509172 20.78052432 -23.7109375 23.95703125 C-26 26 -26 26 -28.69921875 28.078125 C-31.62471992 30.52183735 -32.31572645 32.27451069 -33 36 C-32.09622364 41.16443632 -28.06700172 44.07416121 -24 47 C-21.4048507 48.73557453 -20.22705525 49.01085523 -17.05859375 48.859375 C-13.56459232 47.87766323 -11.79804087 46.61820916 -9.0625 44.25 C-7.64130859 43.03376953 -7.64130859 43.03376953 -6.19140625 41.79296875 C-5.42594482 41.12273682 -5.42594482 41.12273682 -4.64501953 40.43896484 C-2.88709368 38.9012363 -1.11467668 37.38145601 0.66015625 35.86328125 C7.39889206 30.08155628 14.03394071 24.1998992 20.58203125 18.203125 C23.35690406 15.67480793 26.17479894 13.20100466 29.0078125 10.73828125 C32.69632451 7.51987371 36.34549531 4.25690811 40 1 C40.99 1.495 40.99 1.495 42 2 C35.54483917 8.65794075 29.05346139 14.94459174 21.78125 20.72265625 C18.74422438 23.20943425 15.87021039 25.82498237 13 28.5 C8.33446773 32.84057357 3.51763836 36.92538795 -1.44921875 40.921875 C-4.5240072 43.42690939 -7.49114049 46.03778107 -10.44140625 48.6875 C-13.33863926 51.12727516 -15.93827582 51.45525108 -19.70703125 51.4140625 C-25.25639725 50.41196234 -29.49323465 46.35976385 -33.5625 42.6875 C-35.70202538 38.68751776 -36.19397526 35.41251725 -35 31 C-32.78454786 27.79035605 -30.0040925 25.46135629 -27 23 C-26.15566406 22.30261719 -25.31132812 21.60523438 -24.44140625 20.88671875 C-22.61759829 19.39643736 -20.78661055 17.91490734 -18.94921875 16.44140625 C-15.19255212 13.33158288 -11.61833508 10.05025816 -8.05957031 6.7175293 C-5.47688671 4.30805298 -2.87580649 2.05317627 0 0 Z " fill="#041D9E" transform="translate(530,512)"/>
<path d="M0 0 C0 3 0 3 -2.265625 5.33984375 C-3.25046875 6.19707031 -4.2353125 7.05429687 -5.25 7.9375 C-11.86879757 12.96332271 -11.86879757 12.96332271 -15.5625 19.875 C-14.41868193 26.22954485 -9.05646961 29.95323779 -4.36328125 33.95703125 C-1.56613763 36.37505788 1.15646757 38.8696012 3.875 41.375 C10.47707568 47.44741411 17.10153497 53.4935139 23.875 59.375 C26.72339278 61.85086656 29.50868446 64.38640738 32.27636719 66.95214844 C42.76466405 77.8682536 42.76466405 77.8682536 55.5625 84.5 C60.80453191 83.73752263 64.19290789 80.55582403 68 77 C68.99 75.515 68.99 75.515 70 74 C70.66 74 71.32 74 72 74 C69.88115967 79.20078989 65.62303883 82.96054353 61 86 C57.50158626 86.97282093 54.52445133 86.83631048 51 86 C46.87576864 83.51081894 43.48071223 80.29930703 40 77 C38.90026121 75.99019776 37.79863956 74.9824429 36.6953125 73.9765625 C34.46033258 71.93212978 32.23714688 69.87603305 30.0234375 67.80859375 C23.65818767 61.81814695 23.65818767 61.81814695 16.78515625 56.44140625 C16.19605469 55.96574219 15.60695313 55.49007812 15 55 C15 54.34 15 53.68 15 53 C14.40848145 52.7306665 13.81696289 52.46133301 13.20751953 52.18383789 C11.00247015 51.00132468 9.48358441 49.77937778 7.6796875 48.05859375 C7.06649658 47.47907959 6.45330566 46.89956543 5.8215332 46.30249023 C5.17917725 45.68704346 4.53682129 45.07159668 3.875 44.4375 C2.53331781 43.16585828 1.19086824 41.89502572 -0.15234375 40.625 C-0.80702637 40.00496094 -1.46170898 39.38492188 -2.13623047 38.74609375 C-5.34097459 35.74369266 -8.63982464 32.85127558 -11.94921875 29.96484375 C-15.04525237 26.99854868 -17.6559546 24.40745844 -18.6875 20.1875 C-16.82998415 11.57538107 -7.59458793 6.06595739 -1 1 C-0.67 0.67 -0.34 0.34 0 0 Z " fill="#0323AB" transform="translate(399,477)"/>
<path d="M0 0 C0.66 0.33 1.32 0.66 2 1 C-1.67524866 4.89430322 -5.4667351 8.44975733 -9.6875 11.75 C-15.76317021 16.50568639 -21.36775077 21.73549213 -27 27 C-25.70735873 29.89874417 -24.43512432 31.76602526 -22.015625 33.8125 C-21.41717773 34.32458008 -20.81873047 34.83666016 -20.20214844 35.36425781 C-19.55793945 35.90405273 -18.91373047 36.44384766 -18.25 37 C-17.24888184 37.85223145 -17.24888184 37.85223145 -16.22753906 38.72167969 C-14.83873617 39.90356994 -13.44775669 41.08290699 -12.0546875 42.25976562 C-10.1211651 43.89737823 -8.19880669 45.54686627 -6.28125 47.203125 C1.42332695 53.85530255 9.24172069 60.35387933 17.1640625 66.74609375 C20.23119829 69.27679632 22.52857697 71.28157629 24 75 C23.625 77.75 23.625 77.75 23 80 C22.67 80 22.34 80 22 80 C21.7834375 78.95585938 21.566875 77.91171875 21.34375 76.8359375 C20.13291036 72.60439403 17.84534193 70.4861477 14.5 67.625 C13.03046875 66.34496094 13.03046875 66.34496094 11.53125 65.0390625 C9.19431434 63.00847748 9.19431434 63.00847748 7 62 C7 61.34 7 60.68 7 60 C6.46117187 59.77054688 5.92234375 59.54109375 5.3671875 59.3046875 C2.29417934 57.61098333 -0.23694805 55.4117114 -2.875 53.125 C-3.43509766 52.64538818 -3.99519531 52.16577637 -4.57226562 51.67163086 C-6.38483719 50.118249 -8.19250582 48.55928531 -10 47 C-11.88861666 45.3770767 -13.7782593 43.75535885 -15.66845703 42.13427734 C-16.86065683 41.11116586 -18.05179456 40.08681504 -19.24169922 39.06103516 C-21.73969203 36.91183806 -24.24293676 34.80926452 -26.8359375 32.7734375 C-29 31 -29 31 -30.125 29.0625 C-29.91995775 25.67930294 -27.39387714 24.27353277 -25 22 C-24.52030762 21.54310791 -24.04061523 21.08621582 -23.54638672 20.61547852 C-16.92746306 14.34862526 -10.15884438 8.34849513 -3.046875 2.64453125 C-1.12569477 1.16181243 -1.12569477 1.16181243 0 0 Z " fill="#0425AE" transform="translate(449,470)"/>
<path d="M0 0 C0.495 0.99 0.495 0.99 1 2 C-0.65 3.32 -2.3 4.64 -4 6 C-2.18667846 5.69230293 -0.37435655 5.37870936 1.4375 5.0625 C2.44683594 4.88847656 3.45617187 4.71445312 4.49609375 4.53515625 C6.9287438 4.25248903 6.9287438 4.25248903 8 3 C9.68608966 2.92794489 11.37500659 2.91613932 13.0625 2.9375 C13.98160156 2.94652344 14.90070313 2.95554687 15.84765625 2.96484375 C16.55792969 2.97644531 17.26820313 2.98804688 18 3 C14.76842551 4.77416626 11.58259498 5.76238211 8.02563477 6.71166992 C6.82080948 7.03507858 5.61598419 7.35848724 4.37464905 7.69169617 C3.06367835 8.03837084 1.75259455 8.38461803 0.44140625 8.73046875 C-0.90855359 9.08865504 -2.25849327 9.4469173 -3.6084137 9.80525208 C-6.43445538 10.55404081 -9.26148545 11.2989656 -12.08911133 12.04174805 C-15.70771514 12.99308607 -19.32241361 13.95845586 -22.93635464 14.92733288 C-25.72172267 15.67158137 -28.50960218 16.40604793 -31.29826546 17.13784218 C-32.63201351 17.48955353 -33.96483053 17.84481577 -35.29665947 18.20372581 C-37.16045898 18.7049101 -39.02828827 19.19103475 -40.89624023 19.67651367 C-41.9567308 19.95694016 -43.01722137 20.23736664 -44.10984802 20.52629089 C-47.09251325 21.01516334 -49.10682348 20.79579598 -52 20 C-52.33 19.01 -52.66 18.02 -53 17 C-51.96875 17.226875 -50.9375 17.45375 -49.875 17.6875 C-45.31079666 18.05558091 -44.01553318 17.04564898 -40 15 C-38.05081484 14.61677972 -36.09043452 14.28852677 -34.125 14 C-28.9994111 13.23971487 -24.7876989 11.94753854 -20 10 C-18.36804688 9.58621094 -18.36804688 9.58621094 -16.703125 9.1640625 C-12.66416766 7.89443245 -9.58301637 6.16272935 -6.0625 3.875 C-5.17981445 3.31619141 -5.17981445 3.31619141 -4.27929688 2.74609375 C-2.84796036 1.83841694 -1.42325354 0.92029928 0 0 Z " fill="#080D58" transform="translate(392,685)"/>
<path d="M0 0 C0.77097015 -0.00014603 1.54194031 -0.00029205 2.33627319 -0.0004425 C4.88477389 0.0002542 7.43320152 0.00803529 9.98168945 0.01586914 C11.74860087 0.01773418 13.51551281 0.01915768 15.28242493 0.02015686 C19.93325223 0.02397527 24.58404831 0.03379981 29.23486328 0.04486084 C33.98054583 0.05508948 38.72623343 0.0596576 43.47192383 0.06469727 C52.7837865 0.07542266 62.09562601 0.092491 71.4074707 0.11352539 C71.0774707 3.08352539 70.7474707 6.05352539 70.4074707 9.11352539 C69.4174707 8.61852539 69.4174707 8.61852539 68.4074707 8.11352539 C68.7374707 5.80352539 69.0674707 3.49352539 69.4074707 1.11352539 C68.54500732 1.17773682 67.68254395 1.24194824 66.79394531 1.30810547 C52.9335855 2.23569601 39.05892928 2.48777146 25.17285156 2.72607422 C21.63205845 2.78739649 18.09164873 2.86158431 14.55116367 2.93844891 C11.15054853 3.00956395 7.74972752 3.06646846 4.34887695 3.12524414 C2.44290489 3.16883308 2.44290489 3.16883308 0.49842834 3.21330261 C-0.6678157 3.23024673 -1.83405975 3.24719086 -3.03564453 3.26464844 C-4.57755714 3.2934333 -4.57755714 3.2934333 -6.15061951 3.32279968 C-8.5925293 3.11352539 -8.5925293 3.11352539 -10.5925293 1.11352539 C-6.9998987 -0.08401814 -3.73796323 -0.01846214 0 0 Z " fill="#0046E6" transform="translate(583.592529296875,431.886474609375)"/>
<path d="M0 0 C0.82949158 -0.00029205 1.65898315 -0.00058411 2.51361084 -0.00088501 C5.25698282 0.00050899 8.00008363 0.01607346 10.7434082 0.03173828 C12.64484 0.03546816 14.54627372 0.03831525 16.44770813 0.04031372 C21.45367738 0.04795213 26.45953068 0.06760244 31.4654541 0.08972168 C36.57306347 0.11017561 41.68069156 0.11931447 46.78833008 0.12939453 C56.81116749 0.15084811 66.83391883 0.18498659 76.85668945 0.22705078 C76.85668945 0.88705078 76.85668945 1.54705078 76.85668945 2.22705078 C75.62740723 2.22181396 74.398125 2.21657715 73.1315918 2.21118164 C68.5057856 2.19287762 63.87998251 2.18152736 59.25415039 2.17211914 C57.26423603 2.16713632 55.27432525 2.16034764 53.28442383 2.15161133 C43.21067159 2.10853945 33.26225359 2.18674538 23.2175293 3.03344727 C16.63769843 3.412483 10.06049282 3.06134456 3.48168945 2.78955078 C2.05202762 2.73612521 0.6223399 2.68338764 -0.80737305 2.63134766 C-4.25301881 2.50447044 -7.69822571 2.36843198 -11.14331055 2.22705078 C-7.36075431 -0.29465338 -4.37845287 -0.04015614 0 0 Z " fill="#0890F8" transform="translate(457.143310546875,291.77294921875)"/>
<path d="M0 0 C0.99 0.495 0.99 0.495 2 1 C-7.98123624 7.6860026 -17.96335179 14.36793121 -28.0625 20.875 C-39.57222864 28.04393811 -39.57222864 28.04393811 -50.48828125 36.03515625 C-53.03924047 38.03069667 -55.56982333 39.50311345 -58.4375 41 C-62.46499062 43.14436663 -66.268829 45.37809606 -70 48 C-70.66 47.67 -71.32 47.34 -72 47 C-65.77053921 42.4520132 -59.34484931 38.28266786 -52.8125 34.1875 C-46.33373663 30.12555364 -39.9189461 25.99141583 -33.57250977 21.72607422 C-26.75167177 17.14703728 -19.84990716 12.69584442 -12.93896484 8.25439453 C-11.13435116 7.08691718 -9.3408118 5.9045175 -7.55078125 4.71484375 C-6.07158203 3.74224609 -6.07158203 3.74224609 -4.5625 2.75 C-3.71816406 2.18796875 -2.87382812 1.6259375 -2.00390625 1.046875 C-1.01197266 0.52867187 -1.01197266 0.52867187 0 0 Z " fill="#000964" transform="translate(466,637)"/>
<path d="M0 0 C0.01213028 1.26334671 0.01213028 1.26334671 0.02450562 2.55221558 C0.10274563 10.52537677 0.19012282 18.49837583 0.28752708 26.47132683 C0.33727656 30.56939241 0.38360676 34.66743485 0.421875 38.765625 C0.45899968 42.72743342 0.5054296 46.68903746 0.55806351 50.6506691 C0.57646419 52.15513617 0.59162381 53.65964681 0.60334396 55.16418076 C0.66885559 63.29007972 0.93901986 71.09350378 3 79 C2.34 79 1.68 79 1 79 C-1.28669484 70.83040684 -1.25774374 62.87578283 -1.1953125 54.46484375 C-1.19157537 52.97555228 -1.18873171 51.48625832 -1.18673706 49.9969635 C-1.17915567 46.10569287 -1.15955544 42.21457511 -1.1373291 38.32336426 C-1.11675127 34.34124824 -1.10770999 30.35910716 -1.09765625 26.37695312 C-1.07630349 18.58456625 -1.04223523 10.79230467 -1 3 C-2.44634345 3.79039578 -3.89111047 4.58367673 -5.33520508 5.37817383 C-6.13992752 5.81962234 -6.94464996 6.26107086 -7.77375793 6.71589661 C-10.28695926 8.165519 -12.47577907 9.81280321 -14.6875 11.6875 C-17.99364864 14.35561996 -20.7905314 16.02858417 -25 17 C-21.13433127 12.60113558 -16.69941139 9.77936033 -11.73046875 6.71484375 C-9.38798785 5.24367191 -7.1594394 3.70682832 -4.9375 2.0625 C-2 0 -2 0 0 0 Z " fill="#0047EB" transform="translate(533,323)"/>
<path d="M0 0 C0 28.71 0 57.42 0 87 C-0.33 87 -0.66 87 -1 87 C-1.33 64.23 -1.66 41.46 -2 18 C-2.33 18 -2.66 18 -3 18 C-2.98839844 17.18015625 -2.97679687 16.3603125 -2.96484375 15.515625 C-2.95130859 13.89914062 -2.95130859 13.89914062 -2.9375 12.25 C-2.92589844 11.18265625 -2.91429687 10.1153125 -2.90234375 9.015625 C-2.98489913 6.46631499 -3.25382442 4.42066409 -4 2 C-1 0 -1 0 0 0 Z " fill="#034BE4" transform="translate(683,496)"/>
<path d="M0 0 C4.12401174 1.70229477 7.24387557 4.60089382 10.5625 7.5 C11.18165283 8.03536377 11.80080566 8.57072754 12.4387207 9.12231445 C16.24011709 12.42279334 19.97881577 15.78341952 23.6875 19.1875 C28.9496182 24.01626728 34.45617359 28.50138973 40 33 C41.55085552 34.25960336 43.09350382 35.52942833 44.625 36.8125 C45.25664063 37.33457031 45.88828125 37.85664063 46.5390625 38.39453125 C48.26228632 40.28823443 48.82297821 41.44582852 49 44 C46.5625 46.75 46.5625 46.75 44 49 C43.01 48.505 43.01 48.505 42 48 C42.639375 47.401875 43.27875 46.80375 43.9375 46.1875 C46.20310389 44.09189663 46.20310389 44.09189663 47 41 C46.43796875 40.75636719 45.8759375 40.51273437 45.296875 40.26171875 C42.55980215 38.75819064 40.54204059 36.93300252 38.25 34.8125 C37.36183594 33.99910156 36.47367188 33.18570313 35.55859375 32.34765625 C34.29208984 31.18556641 34.29208984 31.18556641 33 30 C29.20594027 26.62663683 25.36108562 23.3112414 21.51953125 19.9921875 C3.74422799 4.62969866 3.74422799 4.62969866 0 1 C0 0.67 0 0.34 0 0 Z " fill="#0230BE" transform="translate(499,455)"/>
<path d="M0 0 C2 2 2 2 2 4 C-2.31972032 5.17152065 -6.64295784 6.32868974 -10.9699707 7.47290039 C-12.44041255 7.8638634 -13.90983532 8.25868089 -15.37817383 8.6574707 C-17.49302007 9.23112185 -19.61118385 9.79065898 -21.73046875 10.34765625 C-23.00301514 10.68804932 -24.27556152 11.02844238 -25.58666992 11.37915039 C-28.86094929 11.97470811 -30.84377648 11.93078271 -34 11 C-34.33 10.01 -34.66 9.02 -35 8 C-33.96875 8.226875 -32.9375 8.45375 -31.875 8.6875 C-27.31079666 9.05558091 -26.01553318 8.04564898 -22 6 C-20.05081484 5.61677972 -18.09043452 5.28852677 -16.125 5 C-10.28194373 4.13516953 -5.30174351 2.65087176 0 0 Z " fill="#0D1683" transform="translate(374,694)"/>
<path d="M0 0 C0.66 0.33 1.32 0.66 2 1 C-4.44168807 7.64404476 -10.91732328 13.92311878 -18.17578125 19.6875 C-23.3184293 23.89835428 -28.14333265 28.4654153 -33 33 C-33.66 32.34 -34.32 31.68 -35 31 C-29.88552014 26.30710416 -24.72134277 21.72754522 -19.3125 17.375 C-15.52173688 14.30933362 -12.01938443 11.14614779 -8.63671875 7.640625 C-5.91212595 4.90952959 -2.95736626 2.47453096 0 0 Z " fill="#0427B1" transform="translate(570,513)"/>
<path d="M0 0 C0 0.66 0 1.32 0 2 C-8 6 -8 6 -10.140625 6.8828125 C-12.47229167 8.28377189 -12.90828257 9.54363579 -14 12 C-14.95880034 13.28187437 -15.95993957 14.5331293 -17 15.75 C-17.515625 16.36359375 -18.03125 16.9771875 -18.5625 17.609375 C-20 19 -20 19 -22 19 C-23.81027062 24.29156027 -25.41078475 29.63904723 -27 35 C-27.66 35 -28.32 35 -29 35 C-26.84109832 23.03351639 -21.47839804 13.72940793 -12 6 C-3.16629712 0 -3.16629712 0 0 0 Z " fill="#0771EE" transform="translate(368,296)"/>
<path d="M0 0 C0.66 0.99 1.32 1.98 2 3 C1.34 3.66 0.68 4.32 0 5 C-0.33284291 7.91374379 -0.33284291 7.91374379 -0.31884766 11.37744141 C-0.32889328 12.03122269 -0.3389389 12.68500397 -0.34928894 13.3585968 C-0.38021789 15.52290962 -0.39718254 17.68709823 -0.4140625 19.8515625 C-0.4327664 21.35087154 -0.45233922 22.85016998 -0.4727478 24.34945679 C-0.52415753 28.29823562 -0.56373568 32.24704863 -0.60089111 36.19598389 C-0.64087556 40.22449251 -0.69199317 44.25285794 -0.7421875 48.28125 C-0.83905136 56.18740233 -0.9234224 64.09362529 -1 72 C-1.33 72 -1.66 72 -2 72 C-2 48.57 -2 25.14 -2 1 C-1.34 0.67 -0.68 0.34 0 0 Z " fill="#0D96FB" transform="translate(562,312)"/>
<path d="M0 0 C3.92286385 1.6582154 6.93094298 4.31530011 10.125 7.0625 C14.79845368 11.27984105 14.79845368 11.27984105 20.5625 13.5 C25.80453191 12.73752263 29.19290789 9.55582403 33 6 C33.66 5.01 34.32 4.02 35 3 C35.66 3 36.32 3 37 3 C34.88115967 8.20078989 30.62303883 11.96054353 26 15 C22.49806225 15.97380087 19.52436918 15.85648078 16 15 C9.69215442 11.10397773 4.41238204 5.93389309 0 0 Z " fill="#041B9B" transform="translate(434,548)"/>
<path d="M0 0 C4.97110209 3.00882495 9.05736517 6.69328888 13.328125 10.62109375 C16.73877268 13.6577669 20.32506463 16.42572124 23.96875 19.17578125 C26.0511183 21.04590817 27.06138228 22.37925278 28 25 C27.625 27.75 27.625 27.75 27 30 C26.67 30 26.34 30 26 30 C25.7834375 28.95585938 25.566875 27.91171875 25.34375 26.8359375 C24.13291036 22.60439403 21.84534193 20.4861477 18.5 17.625 C17.5203125 16.77164063 16.540625 15.91828125 15.53125 15.0390625 C13.19431434 13.00847748 13.19431434 13.00847748 11 12 C11 11.34 11 10.68 11 10 C10.41734375 9.731875 9.8346875 9.46375 9.234375 9.1875 C6.97213399 7.98519009 5.19423682 6.66174087 3.25 5 C2.63640625 4.484375 2.0228125 3.96875 1.390625 3.4375 C0 2 0 2 0 0 Z " fill="#0521A7" transform="translate(445,520)"/>
<path d="M0 0 C0.66 0.33 1.32 0.66 2 1 C-2.70956367 5.9988884 -7.78587741 10.34180371 -13.1328125 14.64453125 C-17.55755829 18.27957445 -21.78151578 22.12924333 -26 26 C-26.66 25.34 -27.32 24.68 -28 24 C-27.10539062 23.23816406 -26.21078125 22.47632813 -25.2890625 21.69140625 C-18.80645042 16.15915768 -12.36967046 10.59814512 -6.0859375 4.83984375 C-4.12571047 3.11087946 -2.11394578 1.53524117 0 0 Z " fill="#0324AE" transform="translate(530,512)"/>
<path d="M0 0 C0.66 0.33 1.32 0.66 2 1 C-3.25156548 6.56457269 -8.97344135 11.3008345 -15 16 C-16.66825225 17.33134894 -18.33535808 18.66413967 -20 20 C-20 19.01 -20 18.02 -20 17 C-17.83882972 14.92172392 -15.68822636 13.01933225 -13.375 11.125 C-12.75753906 10.60808594 -12.14007813 10.09117187 -11.50390625 9.55859375 C-9.67594958 8.03080681 -7.83868148 6.51485103 -6 5 C-4.84569533 4.03985401 -3.69199474 3.07898106 -2.5390625 2.1171875 C-1.70117188 1.41851562 -0.86328125 0.71984375 0 0 Z " fill="#032BBA" transform="translate(449,470)"/>
<path d="M0 0 C0.33 0.99 0.66 1.98 1 3 C0.45472656 3.27972656 -0.09054687 3.55945313 -0.65234375 3.84765625 C-4.98683509 6.15197558 -8.87349234 8.58699717 -12.6875 11.6875 C-15.99364864 14.35561996 -18.7905314 16.02858417 -23 17 C-19.13583489 12.6028466 -14.70125233 9.78396118 -9.73828125 6.71484375 C-6.38049749 4.61203766 -3.19386352 2.34216658 0 0 Z " fill="#005DF3" transform="translate(531,323)"/>
<path d="M0 0 C1.21072082 3.63216247 0.94985643 6.31104229 0.6875 10.125 C0.60886719 11.38570313 0.53023437 12.64640625 0.44921875 13.9453125 C0.22685547 15.45738281 0.22685547 15.45738281 0 17 C-0.66 17.33 -1.32 17.66 -2 18 C-1.98839844 17.18015625 -1.97679687 16.3603125 -1.96484375 15.515625 C-1.95130859 13.89914062 -1.95130859 13.89914062 -1.9375 12.25 C-1.92589844 11.18265625 -1.91429687 10.1153125 -1.90234375 9.015625 C-1.98489913 6.46631499 -2.25382442 4.42066409 -3 2 C-2.01 1.34 -1.02 0.68 0 0 Z " fill="#014BDD" transform="translate(682,496)"/>
<path d="M0 0 C0.33 0.66 0.66 1.32 1 2 C-4.58924205 7.8997555 -4.58924205 7.8997555 -8 9 C-10.25 8.625 -10.25 8.625 -12 8 C-8.2064129 4.78119883 -4.34170523 2.3836813 0 0 Z " fill="#010C67" transform="translate(392,685)"/>
<path d="M0 0 C0.33 0.66 0.66 1.32 1 2 C-2.61251516 6.56048012 -5.98797445 10.01665146 -11 13 C-9.63696103 9.84456479 -8.1817387 8.06811867 -5.5 5.9375 C-3.06335088 3.99127814 -1.77737879 2.66606818 0 0 Z " fill="#042FBE" transform="translate(585,499)"/>
<path d="M0 0 C0 0.66 0 1.32 0 2 C-1.78104718 3.60178593 -3.62537278 5.13381926 -5.5 6.625 C-7.03140625 7.85089844 -7.03140625 7.85089844 -8.59375 9.1015625 C-9.3878125 9.72804688 -10.181875 10.35453125 -11 11 C-11.66 10.67 -12.32 10.34 -13 10 C-11.21371169 8.32722165 -9.4214925 6.66175557 -7.625 5 C-6.86316406 4.28457031 -6.86316406 4.28457031 -6.0859375 3.5546875 C-2.2265625 0 -2.2265625 0 0 0 Z " fill="#032DBB" transform="translate(425,456)"/>
<path d="M0 0 C2.49361571 1.20381448 4.68143083 2.45428722 7 4 C7 4.66 7 5.32 7 6 C7.9590625 6.433125 7.9590625 6.433125 8.9375 6.875 C11 8 11 8 12 10 C10.68 9.67 9.36 9.34 8 9 C8 8.34 8 7.68 8 7 C7.4225 6.731875 6.845 6.46375 6.25 6.1875 C3.94449957 4.97070811 1.97943808 3.69666121 0 2 C0 1.34 0 0.68 0 0 Z " fill="#0335C4" transform="translate(533,448)"/>
<path d="M0 0 C0.226875 0.53625 0.45375 1.0725 0.6875 1.625 C2.43382056 4.78500863 4.6402849 7.2676983 7 10 C6.01 10 5.02 10 4 10 C1.25 7.25 1.25 7.25 -1 4 C-0.8125 1.625 -0.8125 1.625 0 0 Z " fill="#0424AB" transform="translate(496,548)"/>
<path d="M0 0 C3.63 0.33 7.26 0.66 11 1 C10.67 1.66 10.34 2.32 10 3 C6.44307323 3.85056945 4.50729422 4.16909807 1 3 C0.67 2.01 0.34 1.02 0 0 Z " fill="#101473" transform="translate(339,702)"/>
<path d="M0 0 C0.99 0 1.98 0 3 0 C3.99 1.98 4.98 3.96 6 6 C5.01 6 4.02 6 3 6 C0 2.66666667 0 2.66666667 0 0 Z " fill="#0245DA" transform="translate(544,456)"/>
<path d="M0 0 C4.455 0.99 4.455 0.99 9 2 C9 2.33 9 2.66 9 3 C6.03 3 3.06 3 0 3 C0 2.01 0 1.02 0 0 Z " fill="#0D9BF8" transform="translate(552,293)"/>
<path d="M0 0 C-1.39332574 3.36720387 -2.9789286 4.9859524 -6 7 C-6.66 6.67 -7.32 6.34 -8 6 C-7.0479279 4.99403703 -6.08812654 3.99538437 -5.125 3 C-4.59132813 2.443125 -4.05765625 1.88625 -3.5078125 1.3125 C-2 0 -2 0 0 0 Z " fill="#042CBA" transform="translate(411,468)"/>
<path d="M0 0 C0.99 0.33 1.98 0.66 3 1 C3 1.66 3 2.32 3 3 C1 4.625 1 4.625 -1 6 C-1.66 5.67 -2.32 5.34 -3 5 C-2.01 3.35 -1.02 1.7 0 0 Z M-4 6 C-3.67 6.66 -3.34 7.32 -3 8 C-3.66 7.67 -4.32 7.34 -5 7 C-4.67 6.67 -4.34 6.34 -4 6 Z " fill="#0142DE" transform="translate(458,462)"/>
<path d="M0 0 C2 1 2 1 2 1 Z " fill="#141E6D" transform="translate(401,692)"/>
<path d="" fill="#404040" transform="translate(0,0)"/>
<path d="" fill="#1C2585" transform="translate(0,0)"/>
<path d="" fill="#1A2588" transform="translate(0,0)"/>
<path d="" fill="#151F76" transform="translate(0,0)"/>
<path d="" fill="#101C71" transform="translate(0,0)"/>
<path d="" fill="#0E196B" transform="translate(0,0)"/>
<path d="" fill="#0A1869" transform="translate(0,0)"/>
<path d="" fill="#0D2688" transform="translate(0,0)"/>
<path d="" fill="#1044C4" transform="translate(0,0)"/>
<path d="" fill="#073CCF" transform="translate(0,0)"/>
<path d="" fill="#0656E4" transform="translate(0,0)"/>
<path d="" fill="#0558E6" transform="translate(0,0)"/>
<path d="" fill="#169EF5" transform="translate(0,0)"/>
<path d="" fill="#0F9CFD" transform="translate(0,0)"/>
<path d="" fill="#059DFB" transform="translate(0,0)"/>
<path d="" fill="#119EFB" transform="translate(0,0)"/>
<path d="" fill="#178AEC" transform="translate(0,0)"/>
<path d="" fill="#1891F3" transform="translate(0,0)"/>
<path d="" fill="#444849" transform="translate(0,0)"/>
</svg>
